<svg xmlns="http://www.w3.org/2000/svg" width="430" height="430" fill="none" viewBox="0 0 430 430"><path fill="#ebe6ef" d="M216.297 343.464a3 3 0 0 1-2.526 0L39.797 262.721c-2.316-1.075-2.316-4.367 0-5.442l173.974-80.743a3 3 0 0 1 2.526 0l173.973 80.743c2.316 1.075 2.316 4.367 0 5.442z"/><path fill="#ebe6ef" d="m57.096 249.25 156.674 72.714a3 3 0 0 0 2.526 0L372.97 249.25l-156.674-72.714a3 3 0 0 0-2.526 0z" opacity=".5" style="mix-blend-mode:multiply"/><path fill="#2CA58D" d="M216.228 299.464a3 3 0 0 1-2.526 0L39.729 218.721c-2.316-1.075-2.316-4.367 0-5.442l173.973-80.743a3 3 0 0 1 2.526 0l173.974 80.743c2.316 1.075 2.316 4.367 0 5.442z"/><path fill="#2CA58D" d="m57.297 205.125 156.405 72.589a3 3 0 0 0 2.526 0l156.405-72.589-156.405-72.589a3 3 0 0 0-2.526 0z" opacity=".5" style="mix-blend-mode:multiply"/><path fill="#ebe6ef" d="M216.228 254.464a3 3 0 0 1-2.526 0L39.729 173.721c-2.316-1.075-2.316-4.367 0-5.442l173.973-80.743a3 3 0 0 1 2.526 0l173.974 80.743c2.316 1.075 2.316 4.367 0 5.442z"/></svg>